<svg width="211" height="77" viewBox="0 0 211 77" fill="none" xmlns="http://www.w3.org/2000/svg">
<g clip-path="url(#clip0_1324_1787)">
<path d="M76.7713 0.580078C76.7713 0.810102 76.7713 0.994122 76.7713 1.22415C76.7713 12.5413 76.7713 23.8585 76.7713 35.1757C76.7713 35.7278 76.6332 35.8658 76.0806 35.8658C74.5608 35.8198 73.0411 35.8198 71.5214 35.8658C71.0608 35.8658 70.9687 35.7278 70.9687 35.3137C70.9687 25.9287 70.9687 16.4978 70.9687 7.11277C70.9687 6.23867 71.1069 6.33068 70.2319 6.33068C60.8371 6.33068 51.4885 6.33068 42.0937 6.33068C41.3108 6.33068 41.3569 6.33068 41.3108 5.5486C41.3108 3.89243 41.3108 2.23625 41.2648 0.580078C53.1463 0.580078 64.9358 0.580078 76.7713 0.580078Z" fill="#FDB349"/>
<path d="M35.7843 0.580078C35.7843 2.28226 35.7382 4.03044 35.7843 5.73262C35.7843 6.19267 35.6461 6.33068 35.1856 6.33068C25.7448 6.33068 16.2579 6.33068 6.81716 6.33068C6.12637 6.33068 6.12637 6.33068 6.12637 7.02076C6.12637 16.4057 6.12637 25.8367 6.12637 35.2217C6.12637 35.7738 5.98821 35.9118 5.43558 35.8658C3.77768 35.8198 2.07374 35.8198 0.415842 35.8198C0.323737 35.6358 0.36979 35.4518 0.36979 35.2677C0.36979 23.9045 0.36979 12.5413 0.36979 1.13214C0.36979 0.948117 0.323737 0.764098 0.415842 0.580078C12.2053 0.580078 23.9948 0.580078 35.7843 0.580078Z" fill="#7B7B7B"/>
<path d="M178.179 18.6599C178.179 13.0474 178.179 7.38875 178.179 1.77616C178.179 1.31612 178.317 1.1781 178.778 1.1781C181.265 1.22411 183.752 1.1781 186.238 1.1781C186.653 1.1781 186.745 1.27011 186.745 1.68415C186.745 5.77859 186.745 9.91902 186.745 14.0135C186.745 14.4735 186.883 14.6115 187.344 14.6115C191.719 14.6115 196.14 14.6115 200.515 14.6115C200.975 14.6115 201.067 14.4735 201.067 14.0595C201.067 9.96503 201.067 5.87059 201.067 1.77616C201.067 1.31612 201.206 1.1781 201.666 1.1781C204.107 1.22411 206.594 1.1781 209.034 1.1781C209.449 1.1781 209.541 1.31612 209.541 1.68415C209.541 13.0013 209.541 24.2725 209.541 35.5897C209.541 36.0038 209.403 36.0958 208.988 36.0958C206.502 36.0958 204.061 36.0958 201.574 36.0958C201.159 36.0958 201.067 36.0038 201.067 35.5897C201.067 31.2653 201.067 26.9408 201.067 22.6164C201.067 22.1563 200.929 22.0183 200.469 22.0183C196.094 22.0183 191.673 22.0183 187.298 22.0183C186.837 22.0183 186.745 22.1563 186.745 22.5704C186.745 26.8948 186.745 31.1733 186.745 35.4977C186.745 35.9578 186.607 36.0958 186.146 36.0958C183.659 36.0498 181.219 36.0958 178.732 36.0958C178.271 36.0958 178.179 35.9578 178.179 35.5437C178.225 29.9771 178.179 24.3185 178.179 18.6599Z" fill="#7C7C7C"/>
<path d="M114.12 18.66C114.12 13.0474 114.12 7.43477 114.12 1.82218C114.12 1.31613 114.258 1.22412 114.719 1.22412C122.916 1.22412 131.113 1.22412 139.311 1.22412C139.863 1.22412 139.956 1.36214 139.956 1.86819C139.91 3.93841 139.91 6.00862 139.956 8.07884C139.956 8.53889 139.863 8.67691 139.357 8.67691C134.015 8.67691 128.627 8.67691 123.285 8.6309C122.732 8.6309 122.594 8.76892 122.594 9.32097C122.64 10.8851 122.594 12.4033 122.594 13.9675C122.594 14.6575 122.594 14.6575 123.285 14.6575C127.936 14.6575 132.587 14.6575 137.238 14.6575C137.745 14.6575 137.883 14.7495 137.883 15.3016C137.837 17.4178 137.837 19.488 137.883 21.6043C137.883 22.0643 137.745 22.1563 137.331 22.1563C132.633 22.1563 127.936 22.1563 123.238 22.1563C122.778 22.1563 122.594 22.2483 122.594 22.7544C122.64 24.5486 122.64 26.3888 122.594 28.183C122.594 28.643 122.686 28.781 123.192 28.781C128.535 28.781 133.923 28.781 139.265 28.735C139.817 28.735 139.956 28.873 139.956 29.4251C139.91 31.4953 139.91 33.5655 139.956 35.6357C139.956 36.0498 139.863 36.1878 139.403 36.1878C131.16 36.1878 122.87 36.1878 114.627 36.1878C114.166 36.1878 114.074 36.0038 114.074 35.5897C114.12 29.9311 114.12 24.3186 114.12 18.66Z" fill="#53AEBD"/>
<path d="M23.8108 11.8513C27.6331 11.8513 31.4555 11.8513 35.2779 11.8513C35.7384 11.8513 35.8765 11.9433 35.8765 12.4494C35.8765 20.0862 35.8765 27.723 35.8765 35.3598C35.8765 35.8198 35.7384 35.9119 35.3239 35.9119C27.6792 35.9119 20.0344 35.9119 12.3897 35.9119C11.8831 35.9119 11.791 35.7278 11.791 35.2678C11.791 27.677 11.791 20.1322 11.791 12.5414C11.791 11.9893 11.9752 11.8973 12.4818 11.8973C16.2121 11.8513 20.0344 11.8513 23.8108 11.8513Z" fill="#53AEBD"/>
<path d="M53.3765 35.8198C49.5542 35.8198 45.7318 35.8198 41.9094 35.8198C41.4489 35.8198 41.3568 35.6818 41.3568 35.2678C41.3568 27.631 41.3568 19.9942 41.3568 12.3574C41.3568 11.8973 41.4489 11.8053 41.9094 11.8053C49.6002 11.8053 57.245 11.8053 64.9358 11.8053C65.3963 11.8053 65.4884 11.9433 65.4884 12.3574C65.4884 19.9942 65.4884 27.631 65.4884 35.2678C65.4884 35.7738 65.3042 35.8198 64.8897 35.8198C61.0213 35.8198 57.1989 35.8198 53.3765 35.8198Z" fill="#FD5C36"/>
<path d="M23.8108 41.4324C27.6332 41.4324 31.4555 41.4324 35.2779 41.4324C35.7384 41.4324 35.8766 41.5244 35.8766 42.0304C35.8766 49.6212 35.8766 57.258 35.8766 64.8488C35.8766 65.3549 35.6924 65.4469 35.2318 65.4469C27.6332 65.4469 19.9884 65.4469 12.3897 65.4469C11.8832 65.4469 11.745 65.3549 11.745 64.8028C11.745 57.212 11.745 49.6672 11.745 42.0764C11.745 41.5704 11.8371 41.4324 12.3897 41.4324C16.2121 41.4784 19.9884 41.4324 23.8108 41.4324Z" fill="#FDB349"/>
<path d="M41.3568 53.4396C41.3568 49.6212 41.3568 45.8028 41.3568 41.9844C41.3568 41.5244 41.4489 41.4324 41.9094 41.4324C49.6002 41.4324 57.245 41.4324 64.9358 41.4324C65.3963 41.4324 65.4884 41.5704 65.4884 41.9844C65.4884 49.6212 65.4884 57.258 65.4884 64.8948C65.4884 65.3089 65.3963 65.4469 64.9358 65.4469C57.245 65.4469 49.6002 65.4469 41.9094 65.4469C41.4489 65.4469 41.3568 65.3089 41.3568 64.8948C41.3568 61.0764 41.3568 57.258 41.3568 53.4396Z" fill="#7B7B7B"/>
<path d="M160.587 36.6019C156.258 36.6019 151.883 34.8997 148.429 31.0813C145.896 28.321 144.561 25.0087 144.146 21.3283C143.824 18.154 144.008 15.0256 145.067 11.9893C145.988 9.36704 147.508 7.1128 149.535 5.2266C151.837 3.06437 154.554 1.68423 157.64 1.08617C159.896 0.672122 162.107 0.626117 164.363 0.948151C167.403 1.4082 170.166 2.55832 172.561 4.53653C173.067 4.95057 173.482 5.41062 173.988 5.82466C174.173 6.00868 174.127 6.10069 173.942 6.23871C171.962 7.84888 169.982 9.50505 168.048 11.1612C167.817 11.3452 167.679 11.2992 167.495 11.1152C164.732 8.63096 160.587 8.0329 157.317 9.78108C155.061 10.9772 153.587 12.8634 152.896 15.3477C152.021 18.706 152.206 21.9264 154.232 24.8707C156.258 27.815 159.16 28.9651 162.706 28.5511C164.594 28.321 166.206 27.5389 167.541 26.2048C167.725 26.0208 167.863 26.0208 168.048 26.2048C169.982 27.815 171.962 29.4251 173.896 30.9893C174.219 31.2653 174.219 31.3574 173.896 31.6794C170.442 35.0377 166.206 36.5559 160.587 36.6019Z" fill="#FEB349"/>
<path d="M96.3437 1.22412C100.903 1.22412 105.508 1.22412 110.067 1.22412C110.528 1.22412 110.62 1.36214 110.62 1.77618C110.62 3.8924 110.574 6.05463 110.62 8.17085C110.62 8.5849 110.482 8.67691 110.067 8.67691C107.074 8.67691 104.081 8.67691 101.087 8.67691C100.627 8.67691 100.535 8.81492 100.535 9.22896C100.535 18.0159 100.535 26.7568 100.535 35.5437C100.535 36.0498 100.396 36.1878 99.8898 36.1878C97.449 36.1418 94.9622 36.1418 92.5214 36.1878C92.0608 36.1878 91.9687 36.0498 91.9687 35.6357C91.9687 26.8948 91.9687 18.1539 91.9687 9.36698C91.9687 8.5849 92.0608 8.67691 91.2779 8.67691C88.3766 8.67691 85.4293 8.67691 82.5279 8.67691C82.1135 8.67691 82.0214 8.5849 82.0214 8.17085C82.0214 6.00863 82.0214 3.8924 82.0214 1.73017C82.0214 1.31613 82.1595 1.22412 82.574 1.22412C87.1793 1.22412 91.7845 1.22412 96.3437 1.22412Z" fill="#FD5C36"/>
<path d="M59.0411 76.4881C53.3305 76.4881 47.6661 76.4881 41.9555 76.4881C41.495 76.4881 41.3108 76.3961 41.3108 75.8901C41.3568 74.4179 41.3568 72.8997 41.3108 71.4276C41.3108 70.9215 41.4489 70.7835 41.9095 70.8295C51.3503 70.8295 60.7911 70.8295 70.2318 70.8295C71.0608 70.8295 70.9226 70.9215 70.9226 70.0935C70.9226 60.6625 70.9226 51.2315 70.9226 41.8465C70.9226 41.3404 71.0608 41.2484 71.5213 41.2484C73.0411 41.2944 74.5608 41.2944 76.1266 41.2484C76.5871 41.2484 76.6792 41.3864 76.6792 41.8005C76.6792 49.3453 76.6792 56.9361 76.6792 64.4809C76.6792 68.2993 76.6792 72.1177 76.6792 75.9361C76.6792 76.3961 76.5871 76.5341 76.0805 76.5341C70.4621 76.4881 64.7516 76.4881 59.0411 76.4881Z" fill="#53AEBD"/>
<path d="M0.416016 76.488C0.416016 76.35 0.416016 76.212 0.416016 76.074C0.416016 64.6188 0.416016 53.1636 0.416016 41.7544C0.416016 41.6163 0.416016 41.4323 0.416016 41.2943C2.11996 41.2943 3.77786 41.2943 5.48181 41.2943C5.94233 41.2943 6.08049 41.3863 6.08049 41.8924C6.08049 51.2774 6.08049 60.7084 6.08049 70.0933C6.08049 70.9214 5.94233 70.8754 6.86338 70.8754C16.2581 70.8754 25.6989 70.8754 35.0936 70.8754C35.6463 70.8754 35.7844 71.0134 35.7844 71.5655C35.7384 73.2217 35.7844 74.8778 35.7844 76.58C35.6463 76.718 35.4621 76.672 35.2779 76.672C23.8568 76.672 12.3897 76.672 0.968647 76.672C0.784437 76.534 0.600226 76.58 0.416016 76.488Z" fill="#FD5C36"/>
<path d="M181.725 49.8053C181.725 46.999 181.725 44.3767 181.725 41.7544C181.725 41.3404 181.817 41.1564 182.278 41.2024C183.061 41.2484 183.89 41.2484 184.673 41.2024C185.133 41.2024 185.271 41.2944 185.271 41.7544C185.271 45.8949 185.271 50.0353 185.271 54.1297C185.271 54.4978 185.271 54.9118 185.271 55.2799C185.271 55.5559 185.179 55.6019 184.949 55.6019C183.982 55.6019 183.015 55.6019 182.048 55.6019C181.725 55.6019 181.633 55.4179 181.495 55.2339C179.699 52.6116 177.903 50.0353 176.061 47.413C176.015 47.321 175.923 47.229 175.831 47.091C175.692 47.275 175.784 47.459 175.784 47.5971C175.784 50.0813 175.784 52.5656 175.784 55.0498C175.784 55.5559 175.646 55.6479 175.186 55.6019C174.311 55.5559 173.482 55.5559 172.607 55.6019C172.284 55.6019 172.238 55.5099 172.238 55.2339C172.238 50.6794 172.238 46.1249 172.238 41.5704C172.238 41.2484 172.331 41.1564 172.653 41.1564C173.528 41.2024 174.449 41.2024 175.324 41.1564C175.646 41.1564 175.831 41.2944 176.015 41.5244C177.811 44.1467 179.607 46.723 181.449 49.3452C181.449 49.4833 181.541 49.5753 181.725 49.8053Z" fill="#434343"/>
<path d="M136.317 48.4251C136.317 46.1709 136.317 43.9167 136.317 41.6624C136.317 41.2484 136.409 41.1564 136.824 41.1564C137.699 41.2024 138.574 41.2024 139.449 41.1564C139.771 41.1564 139.863 41.2484 139.863 41.5704C139.863 43.1346 139.863 44.6527 139.863 46.2169C139.863 46.5849 139.909 46.769 140.37 46.769C142.028 46.723 143.686 46.769 145.344 46.769C145.712 46.769 145.804 46.677 145.804 46.3089C145.804 44.7448 145.804 43.1806 145.804 41.6164C145.804 41.2484 145.896 41.1564 146.265 41.1564C147.14 41.2024 148.015 41.1564 148.89 41.1564C149.212 41.1564 149.35 41.2024 149.35 41.5704C149.35 46.1249 149.35 50.6334 149.35 55.1878C149.35 55.5099 149.304 55.6019 148.936 55.6019C148.015 55.5559 147.14 55.5559 146.219 55.6019C145.85 55.6019 145.804 55.4639 145.804 55.1418C145.804 53.5317 145.804 51.9215 145.804 50.3113C145.804 49.8513 145.666 49.7593 145.252 49.7593C143.594 49.8053 141.982 49.7593 140.324 49.7593C139.956 49.7593 139.863 49.8513 139.863 50.2193C139.863 51.8295 139.863 53.4857 139.863 55.0958C139.863 55.5099 139.771 55.6019 139.357 55.6019C138.482 55.5559 137.653 55.5559 136.778 55.6019C136.409 55.6019 136.317 55.5099 136.317 55.1418C136.363 52.9336 136.317 50.6794 136.317 48.4251Z" fill="#434343"/>
<path d="M205.074 41.0184C206.824 41.0184 208.436 41.5704 209.817 42.8126C210.094 43.0886 210.186 43.2266 209.817 43.5027C209.127 44.0087 208.482 44.5608 207.837 45.1588C207.607 45.3428 207.469 45.3428 207.284 45.1588C206.133 44.1927 204.844 44.0547 203.508 44.6068C202.127 45.1588 201.436 46.3089 201.252 47.7351C201.113 48.8392 201.252 49.9433 201.85 50.9094C203.048 52.7496 205.488 53.1177 207.192 51.7375C207.469 51.5075 207.607 51.4615 207.883 51.7375C208.528 52.2896 209.173 52.8416 209.863 53.3477C210.186 53.5777 210.14 53.7157 209.863 53.9918C208.39 55.3259 206.594 55.924 204.659 55.878C201.252 55.7859 198.581 53.6237 197.89 50.2654C197.337 47.5051 197.844 44.9288 200.008 42.9046C201.39 41.5244 203.094 40.9724 205.074 41.0184Z" fill="#434343"/>
<path d="M107.304 48.4251C107.304 46.1709 107.304 43.9167 107.304 41.6624C107.304 41.2944 107.396 41.1564 107.811 41.1564C108.64 41.2024 109.469 41.2024 110.298 41.1564C110.712 41.1564 110.85 41.2484 110.85 41.6624C110.85 45.1128 110.85 48.5632 110.85 51.9675C110.85 52.3816 110.942 52.5196 111.403 52.5196C113.337 52.4736 115.225 52.5196 117.159 52.5196C117.528 52.5196 117.62 52.6116 117.62 52.9796C117.574 53.7157 117.574 54.4518 117.62 55.2339C117.62 55.6019 117.482 55.6479 117.159 55.6479C114.028 55.6479 110.942 55.6479 107.811 55.6479C107.442 55.6479 107.35 55.5559 107.35 55.1878C107.304 52.9336 107.304 50.6794 107.304 48.4251Z" fill="#434343"/>
<path d="M189.923 48.3791C189.923 46.1249 189.923 43.8707 189.923 41.6164C189.923 41.2484 190.015 41.1564 190.383 41.1564C191.258 41.2024 192.179 41.1564 193.054 41.1564C193.377 41.1564 193.423 41.2484 193.423 41.5704C193.423 46.1249 193.423 50.6794 193.423 55.2339C193.423 55.6019 193.284 55.6479 193.008 55.6479C192.133 55.6479 191.212 55.6019 190.337 55.6479C189.969 55.6479 189.923 55.5559 189.923 55.1878C189.923 52.9336 189.923 50.6794 189.923 48.3791Z" fill="#434343"/>
<path d="M106.061 59.0522C111.771 59.0522 117.482 59.0522 123.192 59.0522C123.699 59.0522 123.883 59.1443 123.837 59.6963C123.791 60.4784 123.837 60.4784 123.1 60.4784C111.725 60.4784 100.35 60.4784 88.9753 60.4784C88.7911 60.4784 88.4227 60.6624 88.3766 60.3404C88.3306 59.9723 88.2845 59.5583 88.4227 59.1903C88.4687 59.0522 88.745 59.1443 88.9293 59.1443C94.6398 59.0522 100.35 59.0522 106.061 59.0522Z" fill="#FD5C36"/>
<path d="M149.304 60.4324C143.594 60.4324 137.883 60.4324 132.173 60.4324C131.988 60.4324 131.666 60.5704 131.62 60.2483C131.574 59.8803 131.528 59.4662 131.666 59.0982C131.712 58.9602 131.942 59.0522 132.127 59.0522C134.291 59.0522 136.41 59.0522 138.574 59.0522C147.877 59.0522 157.133 59.0522 166.436 59.0522C166.62 59.0522 166.988 58.9142 167.034 59.1902C167.127 59.5583 167.081 59.9723 167.034 60.3403C166.988 60.4784 166.712 60.4324 166.528 60.4324C161.923 60.4324 157.363 60.4324 152.758 60.4324C151.653 60.4324 150.456 60.4324 149.304 60.4324Z" fill="#53AFBE"/>
<path d="M192.548 60.4324C186.883 60.4324 181.219 60.4324 175.6 60.4324C175.094 60.4324 174.863 60.3404 174.909 59.7424C174.955 58.9143 174.817 59.0063 175.646 59.0063C186.975 59.0063 198.304 59.0063 209.633 59.0063C209.863 59.0063 210.232 58.8683 210.324 59.0983C210.416 59.4663 210.37 59.8804 210.324 60.2484C210.278 60.4324 210.048 60.3404 209.909 60.3404C208.896 60.3404 207.883 60.3404 206.87 60.3404C202.08 60.4324 197.337 60.4324 192.548 60.4324Z" fill="#FEB349"/>
<path d="M91.1397 68.9893C91.8305 68.0692 92.5213 67.2871 93.0739 66.4131C93.5805 65.585 94.2713 65.4469 95.1923 65.631C94.4094 66.6891 93.6265 67.7472 92.7976 68.7133C91.9226 69.7254 91.3239 70.8755 91.1858 72.2557C91.0476 73.4058 90.9555 73.4058 89.7121 73.2218C89.8502 72.3937 89.9884 71.5656 90.1265 70.7835C90.1726 70.4615 90.1265 70.2315 90.0344 69.9554C89.4818 68.6673 88.9292 67.3791 88.3766 66.091C88.3305 65.953 88.1923 65.815 88.2384 65.631H88.2844C89.62 65.539 89.62 65.539 90.1265 66.7351C90.495 67.4252 90.8173 68.1612 91.1397 68.9893Z" fill="#434343"/>
<path d="M196.37 73.2217C196.554 72.0716 196.785 71.0135 196.969 69.9554C197.061 69.3573 196.877 69.0353 196.324 68.8973C195.449 68.7133 194.528 69.2653 194.344 70.1394C194.16 71.0135 193.975 71.8876 193.883 72.8077C193.837 73.1757 193.653 73.2677 193.331 73.2217C193.192 73.2217 193.054 73.2217 192.916 73.2217C192.594 73.2677 192.548 73.0837 192.594 72.8077C192.87 71.2435 193.146 69.7254 193.423 68.1612C193.469 67.9772 193.423 67.7472 193.699 67.7472C194.021 67.7472 194.482 67.5631 194.666 67.8852C194.804 68.1152 194.896 68.0692 195.035 67.9772C195.541 67.7012 196.094 67.6552 196.646 67.6552C197.798 67.7012 198.488 68.4832 198.304 69.6334C198.12 70.6915 197.936 71.7496 197.752 72.8077C197.706 73.1757 197.475 73.2217 197.153 73.2217C196.877 73.1757 196.646 73.2217 196.37 73.2217Z" fill="#434343"/>
<path d="M104.541 72.7157C103.666 73.1757 102.883 73.3598 102.054 73.1757C101.225 72.9917 100.765 72.4857 100.857 71.6116C100.949 70.3694 101.225 69.1733 101.456 67.9312C101.548 67.3791 102.146 67.7012 102.515 67.7012C102.883 67.7012 102.699 68.0232 102.653 68.2072C102.515 69.1273 102.331 70.0014 102.146 70.9215C102.008 71.6576 102.284 71.9796 103.021 72.0256C103.942 72.0716 104.633 71.5196 104.817 70.6455C104.956 69.8174 105.094 68.9893 105.278 68.1612C105.324 68.0232 105.232 67.7472 105.508 67.7472C105.877 67.7012 106.199 67.6552 106.567 67.7932C106.706 67.8392 106.613 67.9772 106.567 68.0692C106.291 69.6334 106.015 71.1975 105.738 72.7617C105.646 73.4518 105.14 73.1297 104.817 73.1757C104.633 73.2217 104.265 73.3138 104.541 72.7157Z" fill="#434343"/>
<path d="M128.857 72.7617C128.074 73.1757 127.291 73.4058 126.462 73.2218C125.633 73.0377 125.219 72.5317 125.265 71.7036C125.357 70.4615 125.633 69.2193 125.863 67.9772C125.955 67.4251 126.554 67.7472 126.923 67.7472C127.245 67.7472 127.107 68.0692 127.061 68.2532C126.923 69.1273 126.738 70.0474 126.6 70.9215C126.462 71.7496 126.83 72.1636 127.705 72.0716C128.627 71.9796 129.087 71.5196 129.271 70.5995C129.409 69.7714 129.548 68.9433 129.732 68.1612C129.778 68.0232 129.686 67.7472 129.962 67.7472C130.33 67.7012 130.653 67.6552 131.021 67.7932C131.159 67.8392 131.067 67.9772 131.021 68.0692C130.745 69.6334 130.469 71.1975 130.192 72.7617C130.1 73.3598 129.686 73.1297 129.363 73.1758C129.041 73.2218 128.673 73.3598 128.857 72.7617Z" fill="#434343"/>
<path d="M118.587 65.5389C119.508 65.5389 120.383 65.5389 121.304 65.5389C121.627 65.5389 121.765 65.5849 121.673 65.953C121.488 66.7351 121.534 66.7351 120.706 66.7351C120.291 66.7351 119.831 66.7351 119.416 66.7351C119.094 66.7351 118.956 66.8271 118.909 67.1491C118.587 69.0353 118.265 70.8755 117.942 72.7617C117.896 72.9457 117.942 73.2217 117.712 73.2217C117.344 73.2678 116.975 73.3138 116.607 73.1757C116.469 73.1297 116.561 72.8997 116.561 72.7617C116.883 70.9215 117.206 69.0813 117.574 67.2871C117.666 66.7811 117.528 66.6891 117.067 66.7351C116.515 66.7811 116.008 66.7351 115.456 66.7351C115.179 66.7351 115.087 66.6431 115.179 66.367C115.225 66.229 115.271 66.045 115.271 65.907C115.271 65.631 115.409 65.5389 115.732 65.5389C116.699 65.5389 117.666 65.5389 118.587 65.5389Z" fill="#434343"/>
<path d="M166.067 66.7351C164.824 66.7351 164.824 66.7351 164.64 67.8852C164.363 69.4954 164.041 71.1055 163.811 72.7617C163.719 73.2678 163.442 73.2218 163.12 73.2218C162.383 73.2218 162.383 73.2218 162.521 72.5317C162.844 70.7375 163.166 68.9433 163.488 67.1491C163.534 66.8271 163.488 66.7351 163.166 66.7351C162.613 66.7351 162.015 66.7351 161.462 66.7351C161.186 66.7351 161.048 66.6891 161.094 66.367C161.232 65.585 161.232 65.585 162.015 65.585C163.719 65.585 165.423 65.585 167.127 65.585C167.495 65.585 167.541 65.677 167.495 66.045C167.449 66.6431 167.173 66.8731 166.574 66.7811C166.436 66.6891 166.252 66.7351 166.067 66.7351Z" fill="#434343"/>
<path d="M134.521 67.6552C135.12 67.6092 135.673 67.7932 136.179 68.1152C136.409 68.2993 136.548 68.4833 136.225 68.6673C136.133 68.7133 136.041 68.8053 135.949 68.8973C135.719 69.1733 135.534 69.2194 135.166 68.9433C134.705 68.5753 134.153 68.6213 133.646 68.8513C133.508 68.8973 133.37 68.9893 133.37 69.2194C133.37 69.4034 133.508 69.4954 133.646 69.5414C134.107 69.7254 134.613 69.8634 135.074 70.0474C136.179 70.5075 136.409 71.6116 135.58 72.4857C134.705 73.4058 132.679 73.4978 131.666 72.7157C131.436 72.5317 131.298 72.3937 131.62 72.1637C131.758 72.0717 131.85 71.9796 131.942 71.8876C132.173 71.6576 132.311 71.5656 132.633 71.8416C133.14 72.2097 133.738 72.1637 134.337 72.0256C134.567 71.9796 134.752 71.8876 134.798 71.6116C134.798 71.3356 134.567 71.2896 134.383 71.1976C133.923 71.0595 133.462 70.9215 133.002 70.7375C131.896 70.2775 131.712 69.1273 132.541 68.2533C133.14 67.7932 133.784 67.6092 134.521 67.6552Z" fill="#434343"/>
<path d="M140.416 72.1177C140.416 72.2097 140.416 72.3017 140.416 72.3477C140.232 73.2678 139.909 73.4978 138.942 73.3138C138.067 73.1758 137.607 72.5777 137.745 71.7496C137.883 70.9675 138.021 70.1395 138.159 69.3574C138.252 68.9893 138.205 68.8513 137.791 68.8513C137.653 68.8513 137.284 68.9433 137.377 68.6213C137.469 68.3453 137.238 67.7472 137.745 67.7932C138.344 67.7932 138.482 67.5632 138.528 67.0111C138.528 66.8271 138.528 66.5051 138.758 66.5051C139.08 66.4591 139.449 66.4591 139.771 66.5511C140.002 66.5971 139.817 66.9191 139.771 67.0571C139.679 67.7472 139.679 67.7472 140.37 67.7472C140.416 67.7472 140.462 67.7472 140.462 67.7472C140.692 67.7932 141.015 67.6552 141.107 67.8392C141.199 68.1152 141.061 68.4373 140.969 68.7133C140.923 68.9433 140.646 68.8513 140.508 68.8513C139.449 68.8513 139.449 68.8513 139.265 69.9094C139.173 70.4155 139.08 70.9215 138.988 71.4276C138.896 71.9796 139.127 72.2557 139.725 72.2097C139.909 72.1637 140.14 72.1177 140.416 72.1177Z" fill="#434343"/>
<path d="M191.442 72.1177C191.442 72.2097 191.442 72.3017 191.442 72.3477C191.258 73.2678 190.936 73.4978 189.969 73.3138C189.094 73.1758 188.633 72.5777 188.771 71.7496C188.909 70.9675 189.048 70.1395 189.186 69.3574C189.278 68.9893 189.232 68.8053 188.817 68.8513C188.679 68.8513 188.311 68.9433 188.403 68.6213C188.495 68.3453 188.265 67.7472 188.771 67.7932C189.37 67.7932 189.554 67.5632 189.554 67.0111C189.554 66.8271 189.554 66.5051 189.784 66.5051C190.107 66.4591 190.475 66.4591 190.798 66.5511C191.028 66.5971 190.844 66.9191 190.798 67.0571C190.706 67.7472 190.706 67.7472 191.396 67.7472C191.442 67.7472 191.488 67.7472 191.488 67.7472C191.719 67.7932 192.087 67.6552 192.133 67.8392C192.225 68.1152 192.087 68.4373 191.995 68.7133C191.949 68.9433 191.673 68.8513 191.534 68.8513C190.475 68.8513 190.475 68.8513 190.291 69.9094C190.199 70.4155 190.107 70.9215 190.015 71.4276C189.923 71.9796 190.153 72.2557 190.752 72.2097C190.936 72.1637 191.166 72.1177 191.442 72.1177Z" fill="#434343"/>
<path d="M159.298 65.5389C159.528 65.5389 159.666 65.5389 159.804 65.5389C160.035 65.5389 160.081 65.6309 160.035 65.8149C159.62 68.1611 159.206 70.5074 158.791 72.8536C158.745 73.1297 158.607 73.1757 158.377 73.1757C157.363 73.2217 157.363 73.2217 157.548 72.2556C157.916 70.2774 158.238 68.2532 158.607 66.275C158.653 65.8609 158.653 65.3088 159.298 65.5389Z" fill="#434343"/>
<path d="M107.811 73.1757C107.212 73.3137 107.166 73.0837 107.304 72.5776C107.581 71.1055 107.811 69.6333 108.087 68.1152C108.133 67.8851 108.179 67.6551 108.456 67.7471C108.778 67.8391 109.192 67.4711 109.331 67.9771C109.423 68.2992 109.515 68.1152 109.607 68.0692C109.975 67.8851 110.344 67.7471 110.758 67.6551C111.127 67.5631 111.311 67.6551 111.219 68.1152C111.127 68.5752 111.035 68.8052 110.482 68.8972C109.423 69.0353 109.054 69.4953 108.916 70.5074C108.778 71.1975 108.64 71.8876 108.548 72.5316C108.502 73.0377 108.363 73.3597 107.811 73.1757Z" fill="#434343"/>
<path d="M122.824 68.1612C123.331 67.8852 123.837 67.7012 124.39 67.6552C124.666 67.6091 124.758 67.7012 124.712 68.0232C124.62 68.4832 124.574 68.8513 123.929 68.9433C122.916 69.0353 122.548 69.5413 122.363 70.5535C122.225 71.2895 122.041 72.0256 121.949 72.8077C121.903 73.1757 121.719 73.2677 121.396 73.2217C121.304 73.2217 121.166 73.2217 121.074 73.2217C120.706 73.2677 120.567 73.1757 120.659 72.7617C120.936 71.2435 121.212 69.7254 121.442 68.2072C121.488 67.8852 121.581 67.6551 121.949 67.7472C122.317 67.8392 122.87 67.3791 122.824 68.1612Z" fill="#434343"/>
<path d="M185.916 68.2072C186.469 67.9312 186.975 67.7012 187.482 67.6552C187.758 67.6552 187.85 67.7012 187.804 67.9772C187.712 68.4372 187.712 68.8513 187.021 68.8973C185.962 69.0353 185.64 69.4953 185.456 70.5535C185.317 71.2895 185.133 72.0256 185.041 72.8077C184.995 73.1757 184.811 73.2217 184.534 73.2217C184.396 73.2217 184.304 73.2217 184.166 73.2217C183.798 73.2677 183.706 73.1757 183.798 72.7617C184.074 71.2435 184.35 69.6794 184.581 68.1612C184.627 67.7472 184.903 67.7012 185.225 67.7472C185.502 67.7932 185.962 67.5171 185.916 68.2072Z" fill="#434343"/>
<path d="M206.133 73.1757C205.535 73.3137 205.488 73.0837 205.627 72.5776C205.903 71.1055 206.133 69.6333 206.41 68.1152C206.456 67.8851 206.502 67.6551 206.778 67.7471C207.1 67.8391 207.515 67.4711 207.653 67.9771C207.745 68.2992 207.837 68.1152 207.929 68.0692C208.298 67.8851 208.666 67.7471 209.081 67.6551C209.449 67.5631 209.633 67.6551 209.541 68.1152C209.449 68.5752 209.357 68.8052 208.804 68.8972C207.745 69.0353 207.377 69.4953 207.238 70.5074C207.1 71.1975 206.962 71.8876 206.87 72.5316C206.824 73.0377 206.686 73.3597 206.133 73.1757Z" fill="#434343"/>
<path d="M160.771 41.0183C156.534 41.0183 153.541 44.0546 153.541 48.3791C153.541 52.7495 156.534 55.8319 160.771 55.8319C164.962 55.8319 168.002 52.7035 168.002 48.4251C167.955 44.0546 164.962 41.0183 160.771 41.0183ZM163.212 51.5534C162.107 52.5655 160.771 52.7956 159.39 52.2435C157.962 51.6914 157.271 50.5413 157.041 49.0692C156.995 48.8391 156.995 48.6091 156.995 48.5171C156.995 46.4929 158.008 44.9287 159.528 44.4227C161.83 43.6866 164.133 45.2508 164.363 47.735C164.548 49.2072 164.317 50.5413 163.212 51.5534Z" fill="#434343"/>
<path d="M98.1397 41.4784C98.0476 41.2484 97.9094 41.1564 97.6792 41.1564C96.5739 41.1564 95.5147 41.1564 94.4094 41.1564C94.0871 41.1564 93.9489 41.2944 93.8568 41.5704C93.5344 42.4905 93.2121 43.3646 92.8437 44.2387C91.416 48.0111 90.0344 51.7835 88.6068 55.6019C89.7121 55.6019 90.7713 55.6019 91.8305 55.6019C92.0608 55.6019 92.1989 55.5559 92.291 55.2799C92.5213 54.5898 92.7515 53.9457 92.9818 53.3017C93.0739 53.0256 93.2121 52.8876 93.5344 52.8876C95.1923 52.8876 96.8502 52.8876 98.5081 52.8876C98.7844 52.8876 98.9226 52.9796 99.0147 53.2556C99.245 53.9457 99.5213 54.6358 99.7515 55.2799C99.7976 55.4179 99.7976 55.6019 100.074 55.6019C101.179 55.6019 102.284 55.6019 103.344 55.6019C103.344 55.5559 103.39 55.5099 103.39 55.5099C101.594 50.8634 99.8437 46.1709 98.1397 41.4784ZM97.4489 49.8053C96.3897 49.8053 95.3765 49.8053 94.2713 49.8053C94.87 48.1951 95.4226 46.631 96.0213 44.9288C96.62 46.5389 97.1265 48.0571 97.6792 49.5293C97.7252 49.7593 97.6792 49.8053 97.4489 49.8053Z" fill="#434343"/>
<path d="M128.673 41.3404C127.337 41.0184 125.956 41.2024 124.804 41.1564C123.607 41.1564 122.64 41.1564 121.719 41.1564C121.396 41.1564 121.304 41.2024 121.304 41.5704C121.304 46.1249 121.304 50.6794 121.304 55.2339C121.304 55.5099 121.35 55.6479 121.673 55.6019C122.548 55.6019 123.469 55.5559 124.344 55.6019C124.758 55.6019 124.85 55.4639 124.804 55.0959C124.804 53.7617 124.804 52.4276 124.804 51.0934C124.804 50.7254 124.896 50.5874 125.265 50.6334C126.14 50.6334 127.015 50.6334 127.89 50.5874C130.192 50.4494 132.127 48.6092 132.311 46.447C132.495 43.9627 131.067 41.9385 128.673 41.3404ZM127.107 47.5511C126.462 47.5511 125.817 47.5511 125.173 47.5511C124.85 47.5511 124.712 47.5051 124.758 47.137C124.804 46.723 124.758 46.3089 124.758 45.8489C124.758 45.4349 124.758 45.0208 124.758 44.5608C124.758 44.2847 124.804 44.1927 125.081 44.1927C125.771 44.1927 126.462 44.1927 127.153 44.1927C128.12 44.2387 128.765 44.9288 128.719 45.8949C128.765 46.953 128.12 47.5511 127.107 47.5511Z" fill="#434343"/>
<path d="M153.956 65.2169C153.587 65.1709 153.219 65.1709 152.896 65.2169C152.666 65.2629 152.758 65.6309 152.712 65.8149C152.574 66.551 152.436 67.3331 152.298 68.1152C151.1 67.3791 149.995 67.4251 148.982 68.2072C148.061 68.9433 147.646 69.9554 147.646 71.1515C147.646 72.4856 148.752 73.4057 150.087 73.1757C150.548 73.0837 151.008 72.8997 151.423 72.6697C151.423 73.0837 151.423 73.1297 151.837 73.0837C152.16 73.0377 152.62 73.3597 152.758 72.7157C153.173 70.2774 153.587 67.8852 154.048 65.4469C154.048 65.4469 154.14 65.2629 153.956 65.2169ZM150.317 72.0716C149.811 72.1176 149.304 71.8876 149.074 71.4275C148.567 70.3694 149.535 68.8513 150.732 68.8513C151.331 68.8513 151.699 69.1273 151.837 69.7254C152.16 70.7375 151.377 71.9336 150.317 72.0716Z" fill="#434343"/>
<path d="M175.14 65.5389C174.081 65.4929 173.021 65.5389 172.008 65.5389C171.732 65.5389 171.64 65.6309 171.594 65.9069C171.225 68.0691 170.811 70.2314 170.442 72.3936C170.304 73.2677 170.304 73.2217 171.179 73.2677C171.502 73.2677 171.686 73.2217 171.732 72.8076C171.778 72.4396 171.87 72.0256 171.916 71.6575C172.1 70.3694 172.1 70.3694 173.39 70.3694C173.62 70.3694 173.85 70.3694 174.081 70.3694C175.462 70.3694 176.567 69.4493 176.89 68.1612C177.212 66.735 176.429 65.5849 175.14 65.5389ZM174.403 69.1273C174.081 69.1733 173.804 69.1273 173.482 69.1273C172.331 69.1273 172.331 69.1273 172.515 68.0231C172.745 66.689 172.745 66.689 174.081 66.689C174.173 66.689 174.311 66.689 174.403 66.689C175.186 66.689 175.554 66.965 175.6 67.6551C175.646 68.3912 175.048 69.0813 174.403 69.1273Z" fill="#434343"/>
<path d="M182.969 67.7471C182.554 67.7931 182.048 67.4251 181.771 68.0232C181.679 68.2072 181.587 68.0692 181.495 67.9772C180.85 67.5631 180.16 67.5171 179.469 67.7011C177.719 68.2072 176.982 70.1394 177.166 71.4735C177.396 72.8077 178.363 73.4057 179.699 73.1757C180.113 73.0837 180.482 72.8997 180.942 72.6697C180.758 73.1757 181.081 73.1757 181.357 73.1297C181.679 73.0837 182.14 73.3597 182.232 72.7617C182.508 71.1515 182.785 69.5873 183.061 67.9772C183.061 67.9312 183.153 67.7471 182.969 67.7471ZM179.791 72.0716C179.238 72.1636 178.732 71.8876 178.548 71.3815C178.087 70.2774 179.008 68.8053 180.206 68.8513C180.758 68.8513 181.081 69.1273 181.311 69.6333C181.679 70.5994 180.896 71.9336 179.791 72.0716Z" fill="#434343"/>
<path d="M144.975 67.6551C143.363 67.5171 142.028 68.3912 141.567 69.9093C141.153 71.1515 141.521 72.3936 142.442 72.9457C143.41 73.4977 145.252 73.3137 145.988 72.5316C146.127 72.3936 146.173 72.3016 146.035 72.1176C145.758 71.8415 145.574 71.4275 145.021 71.8415C144.699 72.1176 144.238 72.1176 143.778 72.0716C143.271 71.9796 142.857 71.7955 142.673 71.2895C142.535 70.9674 142.581 70.8294 142.995 70.8294C143.548 70.8294 144.1 70.8294 144.653 70.8294C145.206 70.8294 145.758 70.8294 146.311 70.8294C146.449 70.8294 146.633 70.8754 146.725 70.6454C147.094 69.4033 146.495 67.7931 144.975 67.6551ZM145.252 69.9093C144.469 69.9093 143.686 69.9093 142.857 69.9093C143.179 69.0352 144.054 68.5752 144.837 68.8512C145.16 68.9892 145.39 69.2193 145.482 69.5873C145.574 69.7713 145.528 69.9093 145.252 69.9093Z" fill="#434343"/>
<path d="M202.403 67.6551C200.469 67.7011 198.903 69.8174 199.455 71.6575C199.686 72.4396 200.192 73.0377 201.067 73.1757C202.173 73.4057 203.14 73.2217 204.015 72.4856C204.107 72.3936 204.153 72.3016 204.061 72.2096C203.877 72.0256 203.738 71.7956 203.508 71.6575C203.37 71.5655 203.232 71.7956 203.048 71.8876C202.633 72.0716 202.219 72.2096 201.758 72.1176C201.298 72.0256 200.929 71.8416 200.699 71.4275C200.515 71.0135 200.561 70.8755 201.021 70.8755C201.574 70.8755 202.081 70.8755 202.633 70.8755C203.186 70.8755 203.738 70.8755 204.291 70.8755C204.567 70.8755 204.659 70.7835 204.706 70.5534C205.12 68.8973 204.107 67.6091 202.403 67.6551ZM203.232 69.9094C202.449 69.9094 201.666 69.9094 200.837 69.9094C201.159 69.0353 202.034 68.5752 202.817 68.8512C203.14 68.9893 203.37 69.2193 203.462 69.5873C203.554 69.7713 203.508 69.9094 203.232 69.9094Z" fill="#434343"/>
<path d="M97.6331 67.6552C95.745 67.6552 94.1792 69.2653 94.3173 71.1515C94.3634 72.2556 95.1002 73.0377 96.1134 73.2217C97.6331 73.5438 99.8437 72.3016 99.8897 69.9094C99.8437 68.5752 98.9686 67.6552 97.6331 67.6552ZM97.0805 72.0256C96.2976 72.2096 95.6989 71.7956 95.5608 71.0135C95.4226 70.1394 96.0213 69.1273 96.8963 68.8973C97.8173 68.6213 98.5542 69.1733 98.5542 70.1394C98.5542 71.0595 97.9094 71.8876 97.0805 72.0256Z" fill="#434343"/>
</g>
<defs>
<clipPath id="clip0_1324_1787">
<rect width="210" height="76" fill="white" transform="translate(0.369995 0.580078)"/>
</clipPath>
</defs>
</svg>
